<?xml version="1.0" encoding="utf-8"?>
<!-- Generator: Adobe Illustrator 15.0.0, SVG Export Plug-In . SVG Version: 6.00 Build 0)  -->
<!DOCTYPE svg PUBLIC "-//W3C//DTD SVG 1.1//EN" "http://www.w3.org/Graphics/SVG/1.1/DTD/svg11.dtd">
<svg version="1.1" id="Layer_1" xmlns="http://www.w3.org/2000/svg" xmlns:xlink="http://www.w3.org/1999/xlink" x="0px" y="0px"
	 width="400px" height="400px" viewBox="0 0 400 400" enable-background="new 0 0 400 400" xml:space="preserve">
<g>
	<path fill="#8EC3DE" d="M79.549,199.833H0c0,110.365,89.468,199.833,199.833,199.833v-79.549
		C133.402,320.117,79.549,266.264,79.549,199.833z"/>
	<path fill="#8AAB8D" d="M320.117,199.833c0,66.431-53.854,120.284-120.284,120.284v79.549
		c110.365,0,199.833-89.468,199.833-199.833H320.117z"/>
	<path fill="#BBACCD" d="M199.833,79.549V0C89.468,0,0,89.468,0,199.833h79.549C79.549,133.402,133.402,79.549,199.833,79.549z"/>
	<path fill="#EB978A" d="M320.117,199.833h79.549C399.666,89.468,310.198,0,199.833,0v79.549
		C266.264,79.549,320.117,133.402,320.117,199.833z"/>
</g>
</svg>
